<mxfile host="65bd71144e">
    <diagram id="_4abz_b1GGnBhsZl71G1" name="Page-1">
        <mxGraphModel dx="424" dy="515" grid="1" gridSize="10" guides="1" tooltips="1" connect="1" arrows="1" fold="1" page="1" pageScale="1" pageWidth="850" pageHeight="1100" math="0" shadow="0">
            <root>
                <mxCell id="0"/>
                <mxCell id="1" parent="0"/>
                <mxCell id="2" value="List" style="swimlane;fontStyle=0;childLayout=stackLayout;horizontal=1;startSize=26;fillColor=none;horizontalStack=0;resizeParent=1;resizeParentMax=0;resizeLast=0;collapsible=1;marginBottom=0;html=1;" vertex="1" parent="1">
                    <mxGeometry x="120" y="30" width="250" height="468" as="geometry"/>
                </mxCell>
                <mxCell id="3" value="Marca varchar(30) not nul&lt;br&gt;l&lt;br&gt;.&lt;br&gt;" style="text;strokeColor=none;fillColor=none;align=left;verticalAlign=top;spacingLeft=4;spacingRight=4;overflow=hidden;rotatable=0;points=[[0,0.5],[1,0.5]];portConstraint=eastwest;whiteSpace=wrap;html=1;" vertex="1" parent="2">
                    <mxGeometry y="26" width="250" height="26" as="geometry"/>
                </mxCell>
                <mxCell id="4" value="Modello varchar(30) not null" style="text;strokeColor=none;fillColor=none;align=left;verticalAlign=top;spacingLeft=4;spacingRight=4;overflow=hidden;rotatable=0;points=[[0,0.5],[1,0.5]];portConstraint=eastwest;whiteSpace=wrap;html=1;" vertex="1" parent="2">
                    <mxGeometry y="52" width="250" height="26" as="geometry"/>
                </mxCell>
                <mxCell id="5" value="Targa Varchar(7) not null&lt;br&gt;&lt;br&gt;N_telaio smallint null&lt;br&gt;&lt;br&gt;km mediumint not null&lt;br&gt;&lt;br&gt;N_proprietari&amp;nbsp; tinyint not null&lt;br&gt;&lt;br&gt;incidenti subiti tinyint not null&lt;br&gt;&lt;br&gt;tipo di cambio Varchar(10) Null&lt;br&gt;&lt;br&gt;N_porte tinyint not null&lt;br&gt;&lt;br&gt;anno year (yyyy) not null&lt;br&gt;&lt;br&gt;prezzo &lt;font color=&quot;#ffffff&quot; face=&quot;Courier New, Courier, fixed, monospace&quot;&gt;&lt;span style=&quot;font-size: 13.5432px; background-color: rgb(0, 0, 0);&quot;&gt;small int not null&lt;/span&gt;&lt;/font&gt;" style="text;strokeColor=none;fillColor=none;align=left;verticalAlign=top;spacingLeft=4;spacingRight=4;overflow=hidden;rotatable=0;points=[[0,0.5],[1,0.5]];portConstraint=eastwest;whiteSpace=wrap;html=1;" vertex="1" parent="2">
                    <mxGeometry y="78" width="250" height="390" as="geometry"/>
                </mxCell>
            </root>
        </mxGraphModel>
    </diagram>
</mxfile>